<svg xmlns="http://www.w3.org/2000/svg" width="60" height="102" fill="none"><path fill="#000" d="M32 0c6.1 18.185 27.783 21.293 23.425 45.443 5.83 8.085 7.208 16.144-2.596 30.557C62.941 49.374 52.06 46.002 32 34.209V88h-2V0zm.345 16.586c7.267 12.37 16.078 19.94 21.773 27.13-.692-6.868-1.216-16.72-21.773-27.13"/><path fill="#000" d="M1.323 97.394c-3.527-5.243.252-12.78 8.315-16.82 8.063-4.042 17.511-3.277 21.039 1.966 3.527 5.242-.252 12.778-8.315 16.929-8.063 4.041-17.511 3.167-21.039-2.075"/></svg>